<?xml version="1.0" encoding="UTF-8" standalone="no"?>
<!-- Created with Inkscape (http://www.inkscape.org/) -->

<svg
   xmlns:dc="http://purl.org/dc/elements/1.1/"
   xmlns:cc="http://creativecommons.org/ns#"
   xmlns:rdf="http://www.w3.org/1999/02/22-rdf-syntax-ns#"
   xmlns:svg="http://www.w3.org/2000/svg"
   xmlns="http://www.w3.org/2000/svg"
   xmlns:sodipodi="http://sodipodi.sourceforge.net/DTD/sodipodi-0.dtd"
   xmlns:inkscape="http://www.inkscape.org/namespaces/inkscape"
   width="116.09211mm"
   height="27.342119mm"
   viewBox="0 0 116.09211 27.342119"
   version="1.1"
   id="svg3765"
   inkscape:version="0.92.4 (unknown)"
   sodipodi:docname="MARdesigns-logo-untrimmed-transparent-bg.svg">
  <defs
     id="defs3759" />
  <sodipodi:namedview
     id="base"
     pagecolor="#ffffff"
     bordercolor="#666666"
     borderopacity="1.0"
     inkscape:pageopacity="0.0"
     inkscape:pageshadow="2"
     inkscape:zoom="2.8"
     inkscape:cx="239.13149"
     inkscape:cy="57.37171"
     inkscape:document-units="mm"
     inkscape:current-layer="layer1"
     showgrid="false"
     fit-margin-top="0"
     fit-margin-left="0"
     fit-margin-right="0"
     fit-margin-bottom="0"
     inkscape:window-width="1853"
     inkscape:window-height="1025"
     inkscape:window-x="1667"
     inkscape:window-y="126"
     inkscape:window-maximized="1" />
  <metadata
     id="metadata3762">
    <rdf:RDF>
      <cc:Work
         rdf:about="">
        <dc:format>image/svg+xml</dc:format>
        <dc:type
           rdf:resource="http://purl.org/dc/dcmitype/StillImage" />
        <dc:title></dc:title>
      </cc:Work>
    </rdf:RDF>
  </metadata>
  <g
     inkscape:label="Layer 1"
     inkscape:groupmode="layer"
     id="layer1"
     transform="translate(-54.779837,-213.97031)">
    <path
       style="fill:#351c75;fill-rule:nonzero;stroke-width:0.26458332"
       inkscape:connector-curvature="0"
       d="m 64.273772,223.15631 q 0.09508,0.27699 0.169498,0.56224 0.07441,0.28525 0.148828,0.58291 0.128159,-0.29766 0.272851,-0.58291 0.148828,-0.28525 0.318328,-0.56224 l 5.312336,-8.73952 q 0.09509,-0.16123 0.194305,-0.24804 0.103352,-0.091 0.214974,-0.1323 0.11162,-0.0455 0.248047,-0.0537 0.136424,-0.0124 0.318325,-0.0124 h 2.083594 l -1.885156,15.30449 h -2.410188 l 1.227831,-9.97148 q 0.02894,-0.27285 0.09095,-0.59945 0.06615,-0.33073 0.14056,-0.66973 l -5.258594,8.74365 q -0.181901,0.29766 -0.450617,0.44649 -0.268719,0.14469 -0.587045,0.14469 h -0.380338 q -0.318328,0 -0.558106,-0.14469 -0.235644,-0.14883 -0.343131,-0.44649 l -3.15433,-8.71057 q -0.0083,0.32659 -0.02479,0.63665 -0.01654,0.30592 -0.04961,0.55811 l -1.207162,10.01282 h -2.422591 l 1.885156,-15.30449 h 2.062925 q 0.181901,0 0.318325,0.0124 0.136428,0.008 0.239779,0.0537 0.107487,0.0413 0.181901,0.1323 0.07441,0.0868 0.14056,0.24804 l 3.162599,8.73952 z m 22.511886,6.11849 h -2.129067 q -0.35967,0 -0.570508,-0.1695 -0.210841,-0.1695 -0.264584,-0.45475 l -0.636653,-3.19567 h -5.705079 l -1.418003,3.19567 q -0.115755,0.24391 -0.380338,0.43408 -0.264584,0.19017 -0.591178,0.19017 h -2.158007 l 7.395929,-15.30449 h 2.807066 z m -8.445995,-5.75882 h 4.456576 l -1.037664,-5.23792 q -0.08681,-0.38034 -0.173633,-0.80202 -0.08268,-0.42582 -0.157096,-0.95498 -0.198439,0.52916 -0.396876,0.97978 -0.194302,0.45062 -0.363802,0.78962 z m 13.218735,-0.27285 -0.740008,6.03167 h -2.732649 l 1.872753,-15.30449 h 4.349089 q 1.322916,0 2.265494,0.28112 0.942578,0.28112 1.546159,0.78548 0.603581,0.50023 0.888836,1.19889 0.285253,0.69867 0.285253,1.53376 0,0.88883 -0.248047,1.67018 -0.248047,0.77721 -0.715201,1.41387 -0.46302,0.63252 -1.141015,1.10794 -0.677995,0.47543 -1.533758,0.74001 0.239779,0.14883 0.442352,0.35967 0.20257,0.21084 0.351398,0.50849 l 2.728516,5.70508 h -2.463933 q -0.351398,0 -0.591177,-0.14056 -0.235646,-0.1447 -0.351401,-0.40928 l -2.244823,-4.96507 q -0.128159,-0.27285 -0.314192,-0.39274 -0.181902,-0.12402 -0.574644,-0.12402 z m 0.888833,-7.15615 -0.644922,5.19658 h 1.5875 q 0.82269,0 1.422136,-0.23565 0.599447,-0.23978 0.983919,-0.65732 0.388607,-0.41755 0.578776,-0.97979 0.190169,-0.56224 0.190169,-1.20716 0,-0.99219 -0.615982,-1.55443 -0.611849,-0.56223 -1.893424,-0.56223 z"
       id="path9" />
    <path
       style="fill:#000000;fill-rule:nonzero;stroke-width:0.26458332"
       inkscape:connector-curvature="0"
       d="m 110.68711,215.6653 v 13.6095 h -1.24851 v -1.90583 q -0.58704,0.97152 -1.55029,1.48415 -0.96325,0.51263 -2.17041,0.51263 -1.36012,0 -2.4598,-0.62425 -1.09967,-0.62426 -1.72392,-1.74047 -0.62426,-1.12034 -0.62426,-2.55074 0,-1.43041 0.62426,-2.54662 0.62425,-1.12034 1.72392,-1.73633 1.09968,-0.61598 2.4598,-0.61598 1.17409,0 2.11667,0.48783 0.94671,0.48782 1.55029,1.42213 v -5.79602 z m -4.86172,12.54703 q 1.00872,0 1.82314,-0.46716 0.81856,-0.47129 1.28571,-1.33118 0.46716,-0.86403 0.46716,-1.9637 0,-1.09967 -0.46716,-1.95957 -0.46715,-0.86403 -1.28571,-1.33118 -0.81442,-0.47129 -1.82314,-0.47129 -1.02526,0 -1.84382,0.47129 -0.81442,0.46715 -1.28157,1.33118 -0.46716,0.8599 -0.46716,1.95957 0,1.09967 0.46716,1.9637 0.46715,0.85989 1.28157,1.33118 0.81856,0.46716 1.84382,0.46716 z m 16.89317,-3.3569 h -8.0698 q 0.11162,1.50482 1.15755,2.43086 1.04593,0.92604 2.6417,0.92604 0.8971,0 1.64951,-0.32246 0.75241,-0.32246 1.30225,-0.94258 l 0.73175,0.84336 q -0.6408,0.76894 -1.60405,1.17409 -0.96325,0.40101 -2.11667,0.40101 -1.48828,0 -2.63343,-0.63252 -1.14515,-0.63252 -1.79007,-1.74873 -0.64079,-1.12034 -0.64079,-2.53421 0,-1.41387 0.61185,-2.53008 0.61599,-1.12034 1.69086,-1.7446 1.07487,-0.62425 2.41018,-0.62425 1.33946,0 2.40193,0.62425 1.0666,0.62426 1.67019,1.73633 0.60771,1.10794 0.60771,2.53835 z m -4.65916,-4.18372 q -1.39319,0 -2.33991,0.88883 -0.94257,0.88884 -1.07073,2.32338 h 6.84196 q -0.12816,-1.43454 -1.07487,-2.32338 -0.94258,-0.88883 -2.35645,-0.88883 z m 9.92579,8.69404 q -1.17408,0 -2.24895,-0.339 -1.07074,-0.339 -1.67845,-0.85163 l 0.58704,-1.02939 q 0.60771,0.47955 1.52135,0.78134 0.91778,0.3018 1.90996,0.3018 1.32292,0 1.95544,-0.41342 0.63252,-0.41341 0.63252,-1.16168 0,-0.5333 -0.3514,-0.83509 -0.34727,-0.30592 -0.88057,-0.45888 -0.52916,-0.1571 -1.40973,-0.30593 -1.17409,-0.21911 -1.88929,-0.44648 -0.7152,-0.23151 -1.21956,-0.78135 -0.50437,-0.54984 -0.50437,-1.52136 0,-1.21129 1.00873,-1.98024 1.00872,-0.77308 2.80706,-0.77308 0.93431,0 1.86862,0.24805 0.93431,0.24805 1.54203,0.65319 l -0.57051,1.04593 q -1.19063,-0.82682 -2.84014,-0.82682 -1.2485,0 -1.88102,0.44235 -0.63252,0.43821 -0.63252,1.15342 0,0.54983 0.35554,0.88056 0.35966,0.33073 0.88883,0.48783 0.5333,0.15296 1.46761,0.31833 1.15755,0.22324 1.85208,0.44235 0.69867,0.2191 1.19476,0.7524 0.4961,0.52917 0.4961,1.46762 0,1.26503 -1.05834,2.00917 -1.0542,0.74001 -2.92282,0.74001 z m 6.3818,-9.73997 h 1.30225 v 9.64902 h -1.30225 z m 0.66146,-2.1084 q -0.40514,0 -0.68213,-0.27285 -0.27285,-0.27699 -0.27285,-0.66146 0,-0.36794 0.27285,-0.64079 0.27699,-0.27698 0.68213,-0.27698 0.40514,0 0.678,0.26458 0.27698,0.26458 0.27698,0.63252 0,0.40514 -0.27698,0.68213 -0.27286,0.27285 -0.678,0.27285 z m 13.20664,2.1084 v 8.47493 q 0,2.4598 -1.20303,3.64215 -1.19889,1.18236 -3.62148,1.18236 -1.33946,0 -2.54248,-0.39688 -1.1989,-0.39274 -1.95131,-1.08727 l 0.66146,-0.99219 q 0.69453,0.62426 1.69499,0.97152 1.00045,0.34727 2.10013,0.34727 1.83555,0 2.69544,-0.85163 0.86403,-0.85163 0.86403,-2.64997 v -1.22783 q -0.60358,0.91777 -1.5875,1.3932 -0.97978,0.47542 -2.17454,0.47542 -1.35599,0 -2.46807,-0.59531 -1.10794,-0.59531 -1.74046,-1.66605 -0.63252,-1.07487 -0.63252,-2.43499 0,-1.35599 0.63252,-2.41846 0.63252,-1.0666 1.73219,-1.65364 1.10381,-0.58705 2.47634,-0.58705 1.23196,0 2.22002,0.4961 0.99218,0.49609 1.59577,1.4304 v -1.85208 z m -4.932,8.12766 q 1.0418,0 1.88516,-0.45062 0.84749,-0.45062 1.31465,-1.25676 0.46715,-0.80616 0.46715,-1.83555 0,-1.02526 -0.46715,-1.82314 -0.46716,-0.79789 -1.30225,-1.24851 -0.83509,-0.45061 -1.89756,-0.45061 -1.04593,0 -1.88102,0.44234 -0.83509,0.43822 -1.30225,1.24851 -0.46715,0.80615 -0.46715,1.83141 0,1.02939 0.46715,1.83555 0.46716,0.80614 1.30225,1.25676 0.83509,0.45062 1.88102,0.45062 z m 13.49698,-8.20208 q 1.81901,0 2.88975,1.05834 1.07487,1.05419 1.07487,3.07164 v 5.59346 h -1.30225 v -5.4653 q 0,-1.50482 -0.75241,-2.29443 -0.75241,-0.78962 -2.1456,-0.78962 -1.55856,0 -2.46807,0.92604 -0.90951,0.92605 -0.90951,2.55902 v 5.06429 h -1.30224 v -9.64902 h 1.2485 v 1.7818 q 0.5333,-0.88057 1.47588,-1.36839 0.94671,-0.48783 2.19108,-0.48783 z m 10.09073,9.81439 q -1.17409,0 -2.24896,-0.339 -1.07074,-0.339 -1.67845,-0.85163 l 0.58704,-1.02939 q 0.60772,0.47955 1.52136,0.78134 0.91777,0.3018 1.90996,0.3018 1.32292,0 1.95543,-0.41342 0.63253,-0.41341 0.63253,-1.16168 0,-0.5333 -0.35141,-0.83509 -0.34726,-0.30592 -0.88056,-0.45888 -0.52917,-0.1571 -1.40974,-0.30593 -1.17408,-0.21911 -1.88928,-0.44648 -0.71521,-0.23151 -1.21957,-0.78135 -0.50436,-0.54984 -0.50436,-1.52136 0,-1.21129 1.00872,-1.98024 1.00873,-0.77308 2.80707,-0.77308 0.93431,0 1.86862,0.24805 0.93431,0.24805 1.54202,0.65319 l -0.57051,1.04593 q -1.19062,-0.82682 -2.84013,-0.82682 -1.2485,0 -1.88103,0.44235 -0.63251,0.43821 -0.63251,1.15342 0,0.54983 0.35553,0.88056 0.35967,0.33073 0.88883,0.48783 0.53331,0.15296 1.46762,0.31833 1.15755,0.22324 1.85208,0.44235 0.69866,0.2191 1.19476,0.7524 0.49609,0.52917 0.49609,1.46762 0,1.26503 -1.05833,2.00917 -1.0542,0.74001 -2.92282,0.74001 z"
       id="path11" />
    <path
       style="fill:#8e7cc3;fill-rule:nonzero;stroke-width:0.26458332"
       inkscape:connector-curvature="0"
       d="m 63.335141,234.34232 h 0.719336 l -1.380794,6.91224 h -0.723471 z m 5.016667,1.67845 q 0.876433,0 1.364258,0.45062 0.491961,0.44648 0.491961,1.2361 0,0.27698 -0.05788,0.59531 l -0.595313,2.95176 h -0.698667 l 0.59118,-2.96416 q 0.04961,-0.27699 0.04961,-0.47129 0,-0.56638 -0.343132,-0.86403 -0.338998,-0.30179 -1.000456,-0.30179 -0.839224,0 -1.384927,0.45888 -0.541571,0.45889 -0.727604,1.35599 l -0.553972,2.7864 h -0.702799 l 1.029393,-5.19659 h 0.669727 l -0.165365,0.83096 q 0.740008,-0.86816 2.033984,-0.86816 z m 6.686349,0 q 0.876433,0 1.364258,0.45062 0.491961,0.44648 0.491961,1.2361 0,0.27698 -0.05788,0.59531 l -0.595312,2.95176 h -0.698667 l 0.59118,-2.96416 q 0.04961,-0.27699 0.04961,-0.47129 0,-0.56638 -0.343132,-0.86403 -0.338998,-0.30179 -1.000456,-0.30179 -0.839224,0 -1.384927,0.45888 -0.541571,0.45889 -0.727604,1.35599 l -0.553972,2.7864 h -0.702798 l 1.029393,-5.19659 h 0.669726 l -0.165364,0.83096 q 0.740008,-0.86816 2.033984,-0.86816 z m 5.44933,5.2834 q -0.711068,0 -1.24437,-0.26872 -0.5333,-0.27285 -0.826823,-0.77308 -0.289388,-0.50023 -0.289388,-1.16169 0,-0.87643 0.384474,-1.57923 0.388607,-0.7028 1.07487,-1.09967 0.686263,-0.40101 1.546158,-0.40101 1.083139,0 1.719793,0.59531 0.640787,0.59118 0.640787,1.59577 0,0.88056 -0.388607,1.5875 -0.384472,0.7028 -1.070735,1.10381 -0.686263,0.40101 -1.546159,0.40101 z m 0.04961,-0.62426 q 0.644922,0 1.157553,-0.31005 0.51263,-0.31006 0.802018,-0.86817 0.293521,-0.5581 0.293521,-1.2485 0,-0.76068 -0.450617,-1.19063 -0.446484,-0.42994 -1.256772,-0.42994 -0.644922,0 -1.157552,0.31832 -0.51263,0.3142 -0.806154,0.8723 -0.289388,0.55811 -0.289388,1.2485 0,0.76068 0.446485,1.18649 0.450619,0.42168 1.260906,0.42168 z m 9.08706,-4.62194 -3.336232,5.19659 h -0.723469 l -1.281575,-5.19659 h 0.698664 l 1.079005,4.43591 2.831867,-4.43591 z m 5.581071,0 -1.037665,5.19659 h -0.669726 l 0.165364,-0.81856 q -0.376203,0.41341 -0.888833,0.64079 -0.51263,0.22738 -1.136883,0.22738 -0.661458,0 -1.174088,-0.26459 -0.51263,-0.26872 -0.802018,-0.76481 -0.285253,-0.50023 -0.285253,-1.17409 0,-0.87643 0.380338,-1.57923 0.380339,-0.7028 1.050066,-1.09967 0.673859,-0.40101 1.504817,-0.40101 0.740005,0 1.244367,0.29352 0.504362,0.28939 0.73174,0.83096 l 0.214974,-1.08728 z m -3.418915,4.62194 q 0.644922,0 1.157553,-0.31005 0.51263,-0.31006 0.802018,-0.86817 0.293523,-0.5581 0.293523,-1.2485 0,-0.76068 -0.45062,-1.19063 -0.446484,-0.42994 -1.25677,-0.42994 -0.644922,0 -1.157553,0.31832 -0.51263,0.3142 -0.806151,0.8723 -0.289388,0.55811 -0.289388,1.2485 0,0.76068 0.446485,1.18649 0.450617,0.42168 1.260903,0.42168 z m 5.46425,-0.99632 q -0.04134,0.23565 -0.04134,0.3266 0,0.6904 0.752409,0.6904 0.442352,0 0.797886,-0.26459 l 0.169497,0.5333 q -0.446484,0.33487 -1.157552,0.33487 -0.582909,0 -0.926042,-0.3142 -0.338997,-0.31832 -0.338997,-0.8723 0,-0.21497 0.04134,-0.40514 l 0.603581,-3.05924 h -0.917774 l 0.107487,-0.59532 H 97.2671 l 0.227378,-1.13274 h 0.702799 l -0.227378,1.13274 h 1.579232 l -0.115755,0.59532 h -1.583365 z m 3.910617,-3.62562 h 0.69866 l -1.02526,5.19659 h -0.7028 z m 0.64905,-1.13274 q -0.2067,0 -0.33899,-0.13643 -0.1323,-0.14056 -0.1323,-0.33073 0,-0.22737 0.15297,-0.38034 0.15296,-0.15296 0.3886,-0.15296 0.20671,0 0.34313,0.13643 0.14056,0.13229 0.14056,0.31006 0,0.23564 -0.15709,0.39687 -0.1571,0.1571 -0.39688,0.1571 z m 6.3816,1.13274 -3.33623,5.19659 h -0.72347 l -1.28158,-5.19659 h 0.69867 l 1.079,4.43591 2.83187,-4.43591 z m 0.45476,2.79467 q -0.008,0.0703 -0.008,0.21084 0,0.78961 0.44648,1.20302 0.45062,0.41341 1.33946,0.41341 0.51263,0 0.96325,-0.16949 0.45062,-0.17364 0.73587,-0.47956 l 0.31419,0.50436 q -0.3638,0.3638 -0.91364,0.56637 -0.5457,0.20258 -1.15755,0.20258 -1.12861,0 -1.77767,-0.59118 -0.64492,-0.59532 -0.64492,-1.62058 0,-0.86816 0.37207,-1.57096 0.37207,-0.7028 1.02526,-1.09967 0.65732,-0.40101 1.48001,-0.40101 1.03353,0 1.64538,0.58704 0.61598,0.58705 0.61598,1.61644 0,0.28526 -0.0703,0.62839 z m 2.15387,-2.24069 q -0.78134,0 -1.33531,0.46715 -0.55398,0.46302 -0.74828,1.25264 h 3.70417 q 0.008,-0.0703 0.008,-0.19017 0,-0.72761 -0.44649,-1.12861 -0.44235,-0.40101 -1.18236,-0.40101 z m 9.11523,4.70048 q -1.00872,0 -1.73219,-0.35966 -0.71934,-0.35967 -1.09554,-1.00459 -0.37207,-0.64906 -0.37207,-1.50896 0,-1.13688 0.51263,-2.08772 0.51263,-0.95498 1.45934,-1.51309 0.95085,-0.55811 2.19522,-0.55811 1.00872,0 1.72806,0.36381 0.72347,0.35967 1.09967,1.00872 0.38034,0.64492 0.38034,1.50482 0,1.13275 -0.51677,2.08773 -0.51676,0.95084 -1.4676,1.50895 -0.94672,0.5581 -2.19109,0.5581 z m 0.0703,-0.64905 q 0.99633,0 1.76527,-0.46716 0.77308,-0.47129 1.19063,-1.26504 0.42168,-0.79788 0.42168,-1.74459 0,-1.0294 -0.66146,-1.64125 -0.66146,-0.61185 -1.88929,-0.61185 -0.99632,0 -1.7694,0.47129 -0.76895,0.46716 -1.19063,1.26504 -0.41754,0.79375 -0.41754,1.7322 0,1.03353 0.66146,1.64951 0.66145,0.61185 1.88928,0.61185 z m 6.36811,-3.65456 q 0.34726,-0.50436 0.86816,-0.74414 0.52504,-0.24391 1.26504,-0.24391 l -0.12816,0.68213 -0.19843,-0.0124 q -0.83923,0 -1.37666,0.48369 -0.53744,0.48369 -0.72347,1.4428 l -0.52504,2.63757 h -0.7028 l 1.0294,-5.19659 h 0.66973 z m 3.71587,2.67477 q -0.0413,0.23565 -0.0413,0.3266 0,0.6904 0.75241,0.6904 0.44235,0 0.79789,-0.26459 l 0.16949,0.5333 q -0.44648,0.33487 -1.15755,0.33487 -0.58291,0 -0.92604,-0.3142 -0.339,-0.31832 -0.339,-0.8723 0,-0.21497 0.0413,-0.40514 l 0.60358,-3.05924 h -0.91777 l 0.10749,-0.59532 h 0.92604 l 0.22738,-1.13274 h 0.7028 l -0.22738,1.13274 h 1.57923 l -0.11576,0.59532 h -1.58336 z m 6.44896,-3.66282 q 0.87643,0 1.36426,0.45062 0.49196,0.44648 0.49196,1.2361 0,0.27698 -0.0579,0.59531 l -0.59531,2.95176 h -0.69867 l 0.59118,-2.96416 q 0.0496,-0.27699 0.0496,-0.47129 0,-0.56638 -0.34313,-0.86403 -0.339,-0.30179 -1.00046,-0.30179 -0.83922,0 -1.38493,0.45888 -0.54157,0.45889 -0.7276,1.35599 l -0.55397,2.7864 h -0.7028 l 1.46348,-7.32979 h 0.69866 l -0.57878,2.91455 q 0.71934,-0.81855 1.98438,-0.81855 z m 5.44933,5.2834 q -0.71107,0 -1.24437,-0.26872 -0.5333,-0.27285 -0.82682,-0.77308 -0.28939,-0.50023 -0.28939,-1.16169 0,-0.87643 0.38447,-1.57923 0.38861,-0.7028 1.07487,-1.09967 0.68627,-0.40101 1.54616,-0.40101 1.08314,0 1.71979,0.59531 0.64079,0.59118 0.64079,1.59577 0,0.88056 -0.3886,1.5875 -0.38448,0.7028 -1.07074,1.10381 -0.68626,0.40101 -1.54616,0.40101 z m 0.0496,-0.62426 q 0.64492,0 1.15755,-0.31005 0.51263,-0.31006 0.80202,-0.86817 0.29352,-0.5581 0.29352,-1.2485 0,-0.76068 -0.45062,-1.19063 -0.44648,-0.42994 -1.25677,-0.42994 -0.64492,0 -1.15755,0.31832 -0.51263,0.3142 -0.80615,0.8723 -0.28939,0.55811 -0.28939,1.2485 0,0.76068 0.44649,1.18649 0.45061,0.42168 1.2609,0.42168 z m 4.96055,-0.99632 q -0.0413,0.23565 -0.0413,0.3266 0,0.6904 0.75241,0.6904 0.44235,0 0.79788,-0.26459 l 0.1695,0.5333 q -0.44648,0.33487 -1.15755,0.33487 -0.58291,0 -0.92604,-0.3142 -0.339,-0.31832 -0.339,-0.8723 0,-0.21497 0.0413,-0.40514 l 0.60358,-3.05924 h -0.91777 l 0.10749,-0.59532 h 0.92604 l 0.22737,-1.13274 h 0.7028 l -0.22737,1.13274 h 1.57923 l -0.11576,0.59532 h -1.58336 z m 3.91062,-3.62562 h 0.69866 l -1.02526,5.19659 h -0.7028 z m 0.64905,-1.13274 q -0.20671,0 -0.339,-0.13643 -0.13229,-0.14056 -0.13229,-0.33073 0,-0.22737 0.15296,-0.38034 0.15297,-0.15296 0.38861,-0.15296 0.20671,0 0.34313,0.13643 0.14056,0.13229 0.14056,0.31006 0,0.23564 -0.1571,0.39687 -0.15709,0.1571 -0.39687,0.1571 z m 3.33063,6.37894 q -0.73174,0 -1.27745,-0.26872 -0.54156,-0.27285 -0.83509,-0.77308 -0.28938,-0.50023 -0.28938,-1.16169 0,-0.87643 0.38447,-1.57923 0.38861,-0.7028 1.079,-1.09967 0.6904,-0.40101 1.55856,-0.40101 0.72347,0 1.24024,0.26045 0.5209,0.26045 0.80615,0.77721 l -0.59118,0.34313 q -0.44648,-0.76894 -1.51308,-0.76894 -0.64079,0 -1.16169,0.31832 -0.51676,0.3142 -0.81029,0.86817 -0.28938,0.54984 -0.28938,1.25263 0,0.76068 0.44648,1.18649 0.45062,0.42168 1.28157,0.42168 0.50437,0 0.93431,-0.19017 0.42995,-0.1943 0.70694,-0.5581 l 0.50022,0.38447 q -0.34313,0.46302 -0.9219,0.72761 -0.57878,0.26045 -1.2485,0.26045 z m 4.7212,0 q -0.62425,0 -1.19062,-0.17777 -0.56637,-0.17777 -0.87643,-0.45475 l 0.33899,-0.55398 q 0.29353,0.25632 0.77722,0.41755 0.48782,0.1571 1.02112,0.1571 0.74001,0 1.13688,-0.23978 0.40101,-0.24392 0.40101,-0.6904 0,-0.24391 -0.16536,-0.39274 -0.16123,-0.14883 -0.39688,-0.22738 -0.23564,-0.0786 -0.69039,-0.17776 -0.54571,-0.11989 -0.88057,-0.23565 -0.33486,-0.11989 -0.57464,-0.3762 -0.23565,-0.25632 -0.23565,-0.71107 0,-0.74414 0.61185,-1.18236 0.61599,-0.43821 1.64125,-0.43821 0.50436,0 0.98392,0.13229 0.47955,0.13229 0.77308,0.3514 l -0.29353,0.56224 q -0.29765,-0.21498 -0.69866,-0.3266 -0.40101,-0.11575 -0.82269,-0.11575 -0.71107,0 -1.10794,0.25631 -0.39274,0.25632 -0.39274,0.6904 0,0.25631 0.16536,0.41341 0.1695,0.1571 0.42168,0.23978 0.25218,0.0786 0.68626,0.16536 0.5333,0.1199 0.86403,0.23565 0.33073,0.11162 0.56638,0.36794 0.23564,0.25631 0.23564,0.69039 0,0.76068 -0.62839,1.19063 -0.62425,0.42995 -1.67018,0.42995 z"
       id="path15" />
    <path
       style="fill-rule:evenodd;stroke:#595959;stroke-width:0.79374999;stroke-linecap:butt;stroke-linejoin:round"
       inkscape:connector-curvature="0"
       d="m 54.781133,231.55203 81.691677,-0.26667"
       id="path19" />
    <path
       style="fill-rule:evenodd;stroke:#595959;stroke-width:0.79374999;stroke-linecap:butt;stroke-linejoin:round"
       inkscape:connector-curvature="0"
       d="m 151.2485,231.01049 h 19.35834"
       id="path23" />
  </g>
</svg>
